<?xml version="1.0" encoding="utf-8"?>
<!-- Generator: Adobe Illustrator 28.0.0, SVG Export Plug-In . SVG Version: 6.00 Build 0)  -->
<svg version="1.1" id="Layer_1" xmlns="http://www.w3.org/2000/svg" xmlns:xlink="http://www.w3.org/1999/xlink" x="0px" y="0px"
	 viewBox="0 0 350.1 170.1" style="enable-background:new 0 0 350.1 170.1;" xml:space="preserve">
<style type="text/css">
	.st0{fill:#001E46;}
	.st1{fill:#FFFFFF;}
	.st2{fill-rule:evenodd;clip-rule:evenodd;fill:#FFFFFF;}
	.st3{fill:#00B4E6;}
	.st4{fill-rule:evenodd;clip-rule:evenodd;fill:#00B4E6;}
	.st5{clip-path:url(#SVGID_00000041287301780529068550000006523381963635135399_);}
	.st6{fill-rule:evenodd;clip-rule:evenodd;fill:#001E46;}
</style>
<g>
	<rect x="180.1" class="st0" width="170" height="169.9"/>
	<path class="st1" d="M212.1,100.9c-0.8-1.4-1.8-2.2-3.4-2.2c-1.7,0-3.5,1.3-3.5,3.3c0,1.8,1.6,2.8,3,3.3l1.5,0.6
		c3,1.3,5.3,3.1,5.3,6.9c0,4.2-3,7.2-6.8,7.2c-3.4,0-6.1-2.7-6.6-6.5l2.7-0.6c0,2.5,1.8,4.4,4.1,4.4c2.3,0,3.9-2.1,3.9-4.5
		c0-2.5-1.8-3.5-3.7-4.4l-1.5-0.7c-2.4-1.1-4.6-2.6-4.6-5.8c0-3.7,3-6,6.3-6c2.3,0,4.4,1.3,5.5,3.5L212.1,100.9z"/>
	<rect x="220.9" y="96.6" class="st1" width="2.7" height="23.1"/>
	<path class="st1" d="M250.3,108v0.9c0,6.3-4.1,11.2-10.1,11.2c-6,0-10.7-5.6-10.7-12c0-5.1,2.9-9.7,7.3-11.4
		c4.4-1.7,9.4-0.2,12.3,3.8l-1.9,1.9c-1.6-2.3-4-3.7-6.7-3.8c-4.8,0-8.5,4.2-8.5,9.4c0,4.8,3.7,9.4,8.3,9.4c3.3,0,6.8-3.1,7-6.8
		h-5.5V108H250.3z"/>
	<path class="st1" d="M261.7,113.6l6.3-17.1h2.9l-9.2,24.3l-9.2-24.3h2.9L261.7,113.6L261.7,113.6z"/>
	<path class="st2" d="M272.8,119.6l2.4-5.8h9.7l2.4,5.8h2.9l-10.1-24l-10.1,24H272.8z M276.3,111.2l3.8-9.3l3.8,9.3H276.3z"/>
	<path class="st2" d="M304.1,119.6h3.2l-6.7-10c3.1-0.4,5.1-3.2,5.1-6.5c0-2.2-1-4.3-2.8-5.5c-1.7-1-3.7-1.1-5.6-1.1h-3.2v23.1h2.6
		v-9.8h1.1L304.1,119.6z M297.6,107.5h-0.8v-8.3h0.7c2.6,0,5.8,0.5,5.8,4.1C303.2,106.9,300.3,107.5,297.6,107.5z"/>
	<rect x="313" y="96.6" class="st1" width="2.7" height="23.1"/>
	<path class="st1" d="M332.3,100.9c-0.8-1.4-1.8-2.2-3.4-2.2c-1.7,0-3.5,1.3-3.5,3.3c0,1.8,1.6,2.8,3,3.3l1.5,0.6
		c3,1.3,5.3,3.1,5.3,6.9c0,4.2-3,7.2-6.8,7.2c-3.4,0-6.1-2.7-6.6-6.5l2.7-0.6c0,2.5,1.8,4.4,4.1,4.4c2.3,0,3.9-2.1,3.9-4.5
		c0-2.5-1.8-3.6-3.7-4.4l-1.5-0.7c-2.4-1.1-4.6-2.6-4.6-5.8c0-3.7,3-6,6.3-6c2.3,0,4.4,1.3,5.5,3.5L332.3,100.9z"/>
	<path class="st3" d="M252.5,137v0.9c0,6-4.2,10.7-10.3,10.7c-6.1,0-10.9-5.3-10.9-11.4c0-4.9,3-9.2,7.5-10.9
		c4.5-1.6,9.6-0.2,12.6,3.6l-1.9,1.9c-1.6-2.2-4.1-3.5-6.8-3.6c-4.9,0-8.7,4-8.7,8.9c0,4.6,3.7,9,8.4,9c3.4,0,7-3,7.1-6.5h-5.6V137
		L252.5,137z"/>
	<path class="st4" d="M267.7,148.1h3.3l-6.8-9.6c3.1-0.4,5.2-3,5.2-6.2c0-2.1-1.1-4.1-2.8-5.3c-1.7-1-3.8-1-5.7-1h-3.3v22h2.7v-9.3
		h1.1L267.7,148.1z M261.1,136.5h-0.9v-8h0.7c2.7,0,5.9,0.5,5.9,3.9C266.9,136,263.9,136.5,261.1,136.5z"/>
	<path class="st4" d="M285,148.5c6.3,0,11.3-4.9,11.3-11.5h0c0-6.4-5.1-11.5-11.3-11.5c-6.3,0-11.3,5.2-11.3,11.5
		C273.6,143.6,278.7,148.5,285,148.5z M285,128.1c5.1,0,8.7,4.1,8.7,8.9c0,4.9-3.9,8.8-8.7,8.8c-4.8,0-8.7-3.9-8.7-8.8
		C276.3,132.2,279.9,128.1,285,128.1z"/>
	<path class="st3" d="M303.9,126v13c0,3.6,1.1,6.9,5.2,6.9s5.2-3.3,5.2-6.9v-13h2.7V140c0,4.9-3,8.6-7.9,8.6c-5,0-7.9-3.7-7.9-8.6
		V126H303.9z"/>
	<path class="st4" d="M323.2,148.1h2.7l0-9.2h1.6c4.1,0,7.6-1.8,7.6-6.4c0-4-2.1-6.4-8.7-6.4h-3.1V148.1z M326.8,136.4h-0.9v-7.9
		h0.7c2.7,0,5.9,0.4,5.9,3.9C332.5,135.9,329.5,136.4,326.8,136.4z"/>
</g>
<g>
	<defs>
		<rect id="SVGID_1_" width="170" height="170"/>
	</defs>
	<clipPath id="SVGID_00000044883291755541626880000000303535827695806886_">
		<use xlink:href="#SVGID_1_"  style="overflow:visible;"/>
	</clipPath>
	<g style="clip-path:url(#SVGID_00000044883291755541626880000000303535827695806886_);">
		<path class="st6" d="M41.6,36.6c0.4-2.1-0.2-4.4-1.9-6.1L-6.9,77.1c-2.7,2.7-2.7,7,0,9.7l41.7-41.7v105.7c3.8,0,6.8-3.1,6.8-6.8
			V36.6z"/>
		<path class="st6" d="M110.5-7.7c2.7,2.7,2.7,7,0,9.7L81.2,31.3c2.6-0.5,5.4-0.8,8.2-0.8c22.9,0,41.5,18.6,41.5,41.5
			c0,10-3.5,19.1-9.4,26.3c6.1,5.3,14.1,8.5,22.8,8.5c19.2,0,34.8-15.6,34.8-34.8c0-19.2-15.6-34.8-34.8-34.8
			c-6.2,0-12.1,1.6-17.2,4.5l-4.9-4.9c6.4-4,14-6.4,22.1-6.4c22.9,0,41.5,18.6,41.5,41.5c0,22.9-18.6,41.5-41.5,41.5
			c-10.5,0-20.1-3.9-27.5-10.4c-7.3,6.5-16.9,10.4-27.5,10.4c-22.9,0-41.5-18.6-41.5-41.5c0-8.3,2.4-16,6.6-22.5
			c0.3-1,0.9-2,1.7-2.9l1.7-1.7c1.3-1.5,2.8-3,4.3-4.3L110.5-7.7z M62.3,50.1c-4.8,6-7.7,13.6-7.7,21.9c0,19.2,15.6,34.8,34.8,34.8
			c19.2,0,34.8-15.6,34.8-34.8c0-8-2.7-15.4-7.3-21.3c-4.6,5.9-7.3,13.3-7.3,21.3c0,5.7,1.4,11.1,3.8,15.9l-3.6,3.9
			c-0.4,0.5-0.8,1-1.1,1.6c-3.7-6.2-5.9-13.5-5.9-21.3c0-10,3.5-19.1,9.4-26.3c-6.1-5.3-14.1-8.5-22.8-8.5c-8.3,0-15.9,2.9-21.9,7.7
			L62.3,50.1z"/>
		<path class="st0" d="M71.8,137.7c0,0.3,0,0.7-0.1,1H59.5c0.4,2.4,2.1,4,4.6,4c1.8,0,3.3-0.8,4.1-2.2h3.3c-1.2,3.2-4,5.1-7.3,5.1
			c-4.4,0-7.7-3.4-7.7-7.9c0-4.5,3.3-7.9,7.7-7.9C68.7,129.7,71.8,133.3,71.8,137.7z M64.1,132.5c-2.3,0-4,1.4-4.5,3.6h9.1
			C68.1,133.9,66.4,132.5,64.1,132.5z"/>
		<path class="st0" d="M96,142.3h1.7v2.8h-2.3c-3.3,0-5.3-2-5.3-5.3v-7h-2.7v-0.6l5.2-5.6h0.5v3.5h4.5v2.7h-4.5v6.8
			C93.2,141.3,94.2,142.3,96,142.3z M80.5,136.1c2.5,0.4,5.6,0.9,5.6,4.6c0,2.9-2.4,4.8-6.1,4.8c-3.6,0-6-2-6.1-5.1h3
			c0.1,1.6,1.4,2.4,3.2,2.4c1.7,0,3-0.7,3-1.9c0-1.4-1.6-1.8-3.5-2.1c-2.5-0.4-5.5-1-5.5-4.5c0-2.7,2.3-4.6,5.8-4.6
			c3.5,0,5.8,1.9,5.8,4.8h-2.9c-0.1-1.4-1.2-2.2-3-2.2c-1.7,0-2.8,0.8-2.8,1.8C77.2,135.5,78.7,135.8,80.5,136.1z"/>
		<path class="st0" d="M100.9,145.1v-3.5h3.4v3.5H100.9z"/>
		<path class="st0" d="M113.9,126.6h6.2v18.5h-3v-15.8h-3.3V126.6z"/>
		<path class="st0" d="M135,135.3c1.5,0.9,2.4,2.5,2.4,4.4c0,3.4-2.8,5.8-6.7,5.8c-4,0-6.7-2.4-6.7-5.8c0-1.8,0.9-3.5,2.4-4.4
			c-1.2-0.9-1.9-2.3-1.9-3.9c0-3,2.5-5.1,6.1-5.1c3.6,0,6.1,2.1,6.1,5.1C136.8,133,136.1,134.4,135,135.3z M130.7,128.8
			c-1.9,0-3.2,1.1-3.2,2.6c0,1.6,1.3,2.6,3.2,2.6c1.8,0,3.1-1.1,3.1-2.6C133.8,129.9,132.5,128.8,130.7,128.8z M130.7,142.8
			c2.2,0,3.7-1.3,3.7-3.1c0-1.9-1.5-3.1-3.7-3.1c-2.2,0-3.7,1.3-3.7,3.1C127,141.6,128.5,142.8,130.7,142.8z"/>
		<path class="st0" d="M147.4,133c3.4,0,6.2,2.4,6.2,6c0,3.8-2.8,6.5-6.8,6.5c-4,0-6.8-2.7-6.8-6.5c0-1.7,0.6-3.6,2-6l3.7-6.5h3.3
			c-2.3,4-3.1,5.4-3.9,6.9C145.9,133.1,146.6,133,147.4,133z M146.8,142.6c2.2,0,3.8-1.5,3.8-3.6c0-2.1-1.6-3.6-3.8-3.6
			c-2.2,0-3.8,1.5-3.8,3.6C143.1,141.1,144.7,142.6,146.8,142.6z"/>
		<path class="st0" d="M168.8,138.7v2.7H167v3.7h-2.9v-3.7h-9.2v-0.6l6.3-14.2h3.1l-5.4,12.1h5.3l0.5-5.1h2.3v5.1H168.8z"/>
	</g>
</g>
</svg>
